<svg xmlns="http://www.w3.org/2000/svg" width="512" height="512" viewBox="0 0 512 512">
  <defs>
    <linearGradient id="bg" x1="0" y1="0" x2="1" y2="1">
      <stop offset="0" stop-color="#121a2e"/>
      <stop offset="1" stop-color="#0b0f1a"/>
    </linearGradient>
  </defs>
  <rect width="512" height="512" rx="112" fill="url(#bg)"/>
  <!-- plate -->
  <g transform="translate(56 176)">
    <rect width="400" height="160" rx="22" fill="#f7f7f5" stroke="#11151f" stroke-width="8"/>
    <rect x="8" y="8" width="86" height="144" rx="14" fill="#003399"/>
    <text x="51" y="128" font-family="Oswald, Arial, sans-serif" font-weight="700" font-size="48" fill="#ffce00" text-anchor="middle">D</text>
    <g fill="#ffce00">
      <circle cx="51" cy="34" r="3.4"/>
      <circle cx="33" cy="46" r="3.4"/><circle cx="69" cy="46" r="3.4"/>
      <circle cx="30" cy="66" r="3.4"/><circle cx="72" cy="66" r="3.4"/>
    </g>
    <text x="250" y="118" font-family="Oswald, Arial, sans-serif" font-weight="700" font-size="96" fill="#10131b" text-anchor="middle" letter-spacing="6">B</text>
  </g>
  <!-- location pin -->
  <g transform="translate(330 96)">
    <path d="M48 0C21 0 0 21 0 48c0 34 48 80 48 80s48-46 48-80C96 21 75 0 48 0z" fill="#ffce00" stroke="#0b0f1a" stroke-width="6"/>
    <circle cx="48" cy="46" r="20" fill="#0b0f1a"/>
  </g>
</svg>
